<?xml version="1.0" encoding="UTF-8"?>
<svg width="15px" height="15px" viewBox="0 0 15 15" version="1.1" xmlns="http://www.w3.org/2000/svg" xmlns:xlink="http://www.w3.org/1999/xlink">
    <!-- Generator: Sketch 64 (93537) - https://sketch.com -->
    <title>casino-chip</title>
    <desc>Created with Sketch.</desc>
    <g id="Styleguide" stroke="none" stroke-width="1" fill="none" fill-rule="evenodd">
        <g id="Token-detail---Confirming-01" transform="translate(-1069.000000, -181.000000)" fill="#666666" fill-rule="nonzero">
            <g id="Group-5" transform="translate(1069.000000, 180.000000)">
                <g id="casino-chip" transform="translate(0.000000, 1.000000)">
                    <path d="M12.8033203,2.19670898 C11.3867285,0.780117188 9.50332031,0 7.5,0 C5.49667969,0 3.61327148,0.780117188 2.19667969,2.19670898 C0.780146484,3.61327148 0,5.49667969 0,7.5 C0,9.50332031 0.780146484,11.3867285 2.19667969,12.803291 C3.61327148,14.2198828 5.49667969,15 7.5,15 C9.50332031,15 11.3867285,14.2198828 12.8033203,12.803291 C14.2198535,11.3867285 15,9.50332031 15,7.5 C15,5.49667969 14.2198535,3.61327148 12.8033203,2.19670898 Z M14.4070313,7.19636719 L12.3828809,7.19636719 L12.3828809,7.19636719 C12.3137109,6.07224609 11.8633301,5.04972656 11.1595898,4.25657227 L12.5901563,2.82600586 C13.657998,3.98800781 14.3339941,5.51522461 14.4070313,7.19636719 Z M7.79888672,0.592792969 C9.4828125,0.664804687 11.0125488,1.34173828 12.1758691,2.41160156 L10.7453613,3.84213867 C9.95083008,3.13643555 8.92579102,2.68508789 7.79888672,2.61682617 L7.79888672,0.592792969 Z M7.21294922,0.592353516 L7.21294922,2.61606445 C6.08203125,2.68183594 5.053125,3.13341797 4.25598633,3.8409375 L2.82544922,2.41040039 C3.99131836,1.33875 5.52500977,0.661669922 7.21294922,0.592353516 Z M2.41110352,2.8246875 L3.84164062,4.25522461 C3.13719727,5.04855469 2.68634766,6.07160156 2.61711914,7.19636719 L0.59296875,7.19636719 C0.666035156,5.51458008 1.34255859,3.98683594 2.41110352,2.8246875 Z M0.592177734,7.78227539 L1.03675781,7.78227539 C1.08717773,8.73161133 1.33201172,9.67555664 1.74905273,10.5236133 C1.8,10.6272363 1.90400391,10.6873535 2.01216797,10.6873535 C2.05555664,10.6873535 2.09964844,10.6776563 2.1412207,10.657207 C2.28641602,10.5857813 2.34624023,10.4102051 2.27484375,10.2650098 C1.89703125,9.49675781 1.67367187,8.64249023 1.62380859,7.78227539 L2.61574219,7.78227539 C2.68054687,8.91571289 3.13294922,9.9469043 3.84210937,10.745332 L2.41160156,12.1758691 C1.33825195,11.0087402 0.660410156,9.47276367 0.592177734,7.78227539 Z M7.21294922,14.4076172 C5.52527344,14.3383301 3.99181641,13.6614551 2.82600586,12.5900977 L4.25657227,11.1595605 C5.05362305,11.8667578 6.08229492,12.3181641 7.21294922,12.3839062 L7.21294922,14.4076172 Z M3.19335938,7.5 C3.19335938,6.32188477 3.66902344,5.25292969 4.43818359,4.47459961 C4.44486328,4.46900391 4.45142578,4.46323242 4.45769531,4.45696289 C4.46393555,4.45072266 4.46967773,4.44418945 4.47524414,4.43753906 C5.25351563,3.66875977 6.32223633,3.19335938 7.5,3.19335938 C9.8746875,3.19335938 11.8066406,5.1253125 11.8066406,7.5 C11.8066406,9.8746875 9.8746875,11.8066406 7.5,11.8066406 C5.1253125,11.8066406 3.19335938,9.8746875 3.19335938,7.5 Z M7.79885742,14.407207 L7.79885742,12.3831738 L7.79885742,12.3831738 C8.92552734,12.3149414 9.95036133,11.8637695 10.7447754,11.1583594 L12.1752832,12.5888965 C11.0120215,13.6584668 9.48251953,14.3351953 7.79885742,14.407207 Z M12.5896289,12.1745508 L11.1590918,10.7440137 C11.8675781,9.94576172 12.3194824,8.91509766 12.3842578,7.78230469 L14.4078516,7.78230469 C14.3395898,9.47211914 13.6622754,11.0075684 12.5896289,12.1745508 Z" id="Shape"></path>
                    <path d="M2.45545153,10.7770765 C2.44826814,10.7650863 2.43996039,10.7531274 2.43121539,10.7421989 C2.32349575,10.6075909 2.12698314,10.5856714 1.99221646,10.6934265 C1.86372745,10.7961857 1.83796094,10.9797223 1.9293774,11.1133312 C1.98921818,11.2014774 2.08738079,11.25 2.18791704,11.25 C2.24260451,11.25 2.29797909,11.2356368 2.34829407,11.2054429 C2.4962407,11.1167346 2.54418203,10.9249548 2.45545153,10.7770765 Z" id="Path"></path>
                    <path d="M7.81740651,10.625 C7.81676051,10.625 7.81611451,10.625 7.81546851,10.625 L7.80571702,10.6250625 C7.63585039,10.6261249 7.49892964,10.7668921 7.5,10.9394686 C7.50105221,11.1113889 7.63858819,11.25 7.80759349,11.25 C7.80823949,11.25 7.80888549,11.25 7.80953149,11.25 L7.81928298,11.2499375 C7.98914961,11.2488751 8.12607036,11.1081079 8.12499369,10.9355314 C8.12394779,10.7636424 7.98641181,10.625 7.81740651,10.625 Z" id="Path"></path>
                    <path d="M10.1301078,4.857479 C9.41610475,4.13506635 8.47028246,3.74190623 7.46966655,3.75012634 C5.40198474,3.76731383 3.73343889,5.51114169 3.75012405,7.6373688 C3.75646093,8.43986021 4.00008182,9.20719947 4.45462184,9.85634858 C4.89892984,10.490851 5.51017672,10.9665409 6.22234851,11.2320054 C6.25507935,11.2442011 6.28850782,11.25 6.321384,11.25 C6.44027309,11.25 6.55183698,11.1744348 6.59468356,11.052867 C6.64938998,10.8976714 6.5713999,10.7262448 6.42047762,10.6699596 C5.18164751,10.208169 4.34212776,8.98749851 4.33148879,7.63249652 C4.31736162,5.83591053 5.72725831,4.36244937 7.4743756,4.34789232 C8.31991247,4.34047928 9.11905644,4.67313942 9.72236769,5.28357931 C10.3256499,5.89398931 10.6616496,6.70948343 10.6685097,7.57976829 C10.6791778,8.93480016 9.85895933,10.1692506 8.62754162,10.6515764 C8.47752045,10.7103427 8.40223372,10.8830545 8.45938187,11.0373235 C8.51650096,11.1915924 8.68442816,11.2689511 8.8344784,11.2102745 C9.54240623,10.9330029 10.1460954,10.4472097 10.5803748,9.80538393 C11.0246828,9.14873211 11.2561823,8.3774472 11.2498745,7.5749259 C11.2417354,6.54499167 10.8440819,5.57989165 10.1301078,4.857479 Z" id="Path"></path>
                </g>
            </g>
        </g>
    </g>
</svg>