<?xml version="1.0" encoding="UTF-8"?>
<svg width="22px" height="25px" viewBox="0 0 22 25" version="1.1" xmlns="http://www.w3.org/2000/svg" xmlns:xlink="http://www.w3.org/1999/xlink">
    <!-- Generator: Sketch 64 (93537) - https://sketch.com -->
    <title>settings (4)</title>
    <desc>Created with Sketch.</desc>
    <g id="Styleguide" stroke="none" stroke-width="1" fill="none" fill-rule="evenodd">
        <g id="Land-Listing" transform="translate(-20.000000, -197.000000)" fill="#FFFFFF" fill-rule="nonzero">
            <g id="Group" transform="translate(0.000000, 60.000000)">
                <g id="settings-(4)" transform="translate(20.000000, 137.000000)">
                    <path d="M11,0 C9.97281416,0 9.10897345,0.702481724 8.87349558,1.64664294 C6.49671681,2.10763755 4.3285,3.34008272 2.71914159,5.15736822 C0.965663717,7.13736052 0,9.67843401 0,12.3124279 C0,12.7108503 0.326884956,13.0338592 0.730088496,13.0338592 C1.13329204,13.0338592 1.46017699,12.7108503 1.46017699,12.3124279 C1.46017699,10.0280396 2.29753982,7.82445171 3.81802212,6.10754136 C5.18372566,4.56536168 7.0125,3.5083686 9.02019469,3.08897653 C9.37180531,3.82103694 10.1269115,4.32858792 11,4.32858792 C12.2077124,4.32858792 13.1902655,3.35768565 13.1902655,2.16429396 C13.1902655,0.97090227 12.2077124,0 11,0 Z" id="Path"></path>
                    <path d="M17.2575885,11.0025491 C17.0810531,10.8812043 16.7451637,10.6893517 16.5056947,10.5871489 L16.1276549,9.68535975 C16.2209602,9.45296268 16.3229779,9.08113698 16.3620619,8.86629473 C16.4043584,8.63380146 16.3287699,8.39558484 16.1597301,8.22854944 L15.1328363,7.21383224 C14.9637965,7.04674875 14.7226726,6.97205656 14.4874381,7.01389958 C14.2733274,7.05194306 13.8994735,7.15106772 13.6585442,7.24552713 L12.7459336,6.87196999 C12.6458628,6.64293959 12.4519027,6.30843594 12.3255487,6.12899192 C12.1890708,5.93507118 11.965177,5.81944979 11.726146,5.81944979 L10.2739027,5.81944979 C10.0348717,5.81944979 9.81097788,5.93507118 9.6745,6.12899192 C9.55169912,6.30343401 9.35754425,6.63534052 9.25411504,6.87196999 L8.34150442,7.24552713 C8.10631858,7.1533282 7.73003097,7.0525202 7.51261062,7.01389958 C7.27747345,6.97220085 7.03625221,7.04684494 6.86721239,7.21383224 L5.84031858,8.22854944 C5.67127876,8.39558484 5.59569027,8.63380146 5.63798673,8.86629473 C5.67648673,9.07786649 5.77680088,9.44728742 5.87239381,9.68535975 L5.49435398,10.5871489 C5.26257522,10.6860331 4.92405752,10.8776933 4.74246018,11.0025491 C4.54621239,11.1374086 4.42920354,11.3586476 4.42920354,11.5948442 L4.42920354,13.0298673 C4.42920354,13.2660639 4.54621239,13.4873028 4.74246018,13.6221624 C4.91899558,13.7435071 5.25488496,13.9353598 5.49435398,14.0375625 L5.87239381,14.9393517 C5.7790885,15.1717487 5.6770708,15.5435745 5.63798673,15.7584167 C5.59569027,15.99091 5.67127876,16.2291266 5.84031858,16.396162 L6.86721239,17.4108792 C7.03620354,17.5779146 7.27718142,17.6525106 7.51261062,17.6108119 C7.72672124,17.5727684 8.10057522,17.4736437 8.34150442,17.3791843 L9.25411504,17.7527414 C9.35418584,17.9817718 9.54814602,18.3162755 9.6745,18.4957195 C9.81097788,18.6896402 10.0348717,18.8052616 10.2739027,18.8052616 L11.726146,18.8052616 C11.965177,18.8052616 12.1890708,18.6896402 12.3255487,18.4957195 C12.4483496,18.3212774 12.6425044,17.9893709 12.7459336,17.7527414 L13.6585442,17.3791843 C13.8937301,17.4713832 14.2700177,17.5721912 14.4874381,17.6108119 C14.7227212,17.6526068 14.9637965,17.5779146 15.1328363,17.4108792 L16.1597301,16.396162 C16.3287699,16.2291266 16.4043584,15.99091 16.3620619,15.7584167 C16.3235619,15.5468449 16.2232478,15.177424 16.1276549,14.9393517 L16.5056947,14.0375625 C16.7374735,13.9386783 17.0759912,13.7470181 17.2575885,13.6221624 C17.4538363,13.4873028 17.5708451,13.2660639 17.5708451,13.0298673 L17.5708451,11.5948442 C17.5708451,11.3586476 17.4538363,11.1374086 17.2575885,11.0025491 Z M11,15.1981531 C9.38971681,15.1981531 8.07964602,13.9036168 8.07964602,12.3124279 C8.07964602,10.7212389 9.38971681,9.42670258 11,9.42670258 C12.6102832,9.42670258 13.920354,10.7212389 13.920354,12.3124279 C13.920354,13.9036168 12.6102832,15.1981531 11,15.1981531 Z" id="Shape"></path>
                    <path d="M21.2699115,11.5909965 C20.866708,11.5909965 20.539823,11.9140054 20.539823,12.3124279 C20.539823,14.5968161 19.7024602,16.800404 18.1819779,18.5173144 C16.8162743,20.059494 14.9875,21.1164871 12.9798053,21.5358792 C12.6281947,20.8038188 11.8730885,20.2962678 11,20.2962678 C9.79228761,20.2962678 8.80973451,21.2671701 8.80973451,22.4605618 C8.80973451,23.6539534 9.79228761,24.6248557 11,24.6248557 C12.0271858,24.6248557 12.8910265,23.922374 13.1265044,22.9782128 C15.5032832,22.5172182 17.6715,21.284773 19.2808584,19.4674875 C21.0343363,17.4874952 22,14.9464217 22,12.3124279 C22,11.9140054 21.673115,11.5909965 21.2699115,11.5909965 Z" id="Path"></path>
                </g>
            </g>
        </g>
    </g>
</svg>