<?xml version="1.0" encoding="UTF-8"?>
<svg width="15px" height="15px" viewBox="0 0 15 15" version="1.1" xmlns="http://www.w3.org/2000/svg" xmlns:xlink="http://www.w3.org/1999/xlink">
    <!-- Generator: Sketch 64 (93537) - https://sketch.com -->
    <title>Shape</title>
    <desc>Created with Sketch.</desc>
    <g id="Styleguide" stroke="none" stroke-width="1" fill="none" fill-rule="evenodd">
        <g id="Token-detail---Confirming-01" transform="translate(-594.000000, -180.000000)" fill="#666666" fill-rule="nonzero">
            <g id="Group-7" transform="translate(594.000000, 180.000000)">
                <g id="globe-(1)">
                    <path d="M7.5,0 C3.357875,0 0,3.357875 0,7.5 C0,11.642125 3.357875,15 7.5,15 C11.642125,15 15,11.642125 15,7.5 C14.9953125,3.3598125 11.6401875,0.0046875 7.5,0 Z M10.6465312,1.25 L4.35346875,1.25 C6.33196875,0.25 8.66803125,0.25 10.6465312,1.25 Z M3.51459375,1.75 L11.485375,1.75 C12.0835,2.165875 12.6135938,2.671875 13.056875,3.25 L1.94309375,3.25 C2.386375,2.671875 2.9165,2.165875 3.51459375,1.75 Z M1.59375,3.75 L13.40625,3.75 C13.7055,4.2194375 13.9474375,4.72303125 14.1269063,5.25 L0.87309375,5.25 C1.0525625,4.72303125 1.2945,4.2194375 1.59375,3.75 Z M0.7215,5.75 L14.2785,5.75 C14.4044687,6.24071875 14.4765937,6.74365625 14.4936563,7.25 L0.50634375,7.25 C0.52340625,6.74365625 0.5955625,6.24071875 0.7215,5.75 Z M4.35346875,13.75 L10.6465312,13.75 C8.66803125,14.75 6.33196875,14.75 4.35346875,13.75 Z M11.4854063,13.25 L3.51459375,13.25 C2.91646875,12.834125 2.386375,12.328125 1.94309375,11.75 L13.056875,11.75 C12.613625,12.328125 12.0835,12.834125 11.4854063,13.25 Z M13.40625,11.25 L1.59375,11.25 C1.2945,10.7805625 1.0525625,10.2769687 0.87309375,9.75 L14.126875,9.75 C13.9474375,10.2769687 13.7055,10.7805625 13.40625,11.25 Z M14.2785,9.25 L0.7215,9.25 C0.59553125,8.75928125 0.52340625,8.2563125 0.50634375,7.75 L14.4936563,7.75 C14.4765937,8.2563125 14.4044375,8.75928125 14.2785,9.25 Z" id="Shape"></path>
                </g>
            </g>
        </g>
    </g>
</svg>