<?xml version="1.0" encoding="UTF-8"?>
<svg width="20px" height="20px" viewBox="0 0 20 20" version="1.1" xmlns="http://www.w3.org/2000/svg" xmlns:xlink="http://www.w3.org/1999/xlink">
    <!-- Generator: Sketch 64 (93537) - https://sketch.com -->
    <title>graph</title>
    <desc>Created with Sketch.</desc>
    <g id="Styleguide" stroke="none" stroke-width="1" fill="none" fill-rule="evenodd">
        <g id="Land-Listing" transform="translate(-20.000000, -138.000000)" fill="#FFFFFF" fill-rule="nonzero">
            <g id="Group" transform="translate(0.000000, 60.000000)">
                <g id="graph" transform="translate(20.000000, 78.000000)">
                    <path d="M19.4482261,4.10463938 C19.5585575,4.16651072 19.6939181,4.16300195 19.8008967,4.09551657 C19.9078752,4.02803119 19.9693177,3.90736842 19.9610136,3.7811306 L19.7717349,1.22405458 C19.7636257,1.10978558 19.6989864,1.00709552 19.5994152,0.95037037 C19.4998441,0.893684211 19.3785575,0.890487329 19.2761404,0.941832359 L16.9875244,2.09820663 C16.8734893,2.15465887 16.8002339,2.2697076 16.7973489,2.39688109 C16.7944639,2.52405458 16.8624172,2.64233918 16.9737622,2.70389864 L17.7136842,3.12378168 L17.6861598,3.12378168 C10.3246784,11.3938402 2.94596491,13.2763743 0.598830409,13.6790253 C0.256218324,13.7359064 0.00382066277,14.0304094 0,14.3776608 C0,14.4345029 0.00701754386,14.4911111 0.020662768,14.5463158 C0.117504873,14.9096686 0.476335283,15.1384405 0.84662768,15.0728655 C3.14557505,14.6977388 11.0405068,12.7807797 18.7323977,3.69851852 L19.4482261,4.10463938 Z" id="Path"></path>
                    <path d="M2.75325536,16.5389474 L0.688304094,16.5389474 C0.308148148,16.5389474 0,16.8471345 0,17.2272904 L0,19.6363743 L3.44155945,19.6363743 L3.44155945,17.2272904 C3.44155945,16.8471345 3.13337232,16.5389474 2.75325536,16.5389474 Z" id="Path"></path>
                    <path d="M8.2597271,15.1623392 L6.19477583,15.1623392 C5.81461988,15.1623392 5.50647173,15.4704873 5.50647173,15.8506433 L5.50647173,19.6363353 L8.94803119,19.6363353 L8.94803119,15.8506433 C8.94803119,15.4705263 8.63988304,15.1623392 8.2597271,15.1623392 Z" id="Path"></path>
                    <path d="M13.7661988,12.0649513 L11.7012476,12.0649513 C11.3210916,12.0649513 11.0129435,12.3730994 11.0129435,12.7532554 L11.0129435,19.6363743 L14.4545029,19.6363743 L14.4545029,12.7532554 C14.4545419,12.3730994 14.1463548,12.0649513 13.7661988,12.0649513 Z" id="Path"></path>
                    <path d="M19.2727096,7.93508772 L17.2077583,7.93508772 C16.8276023,7.93508772 16.5194542,8.24323587 16.5194542,8.62339181 L16.5194542,19.6363743 L19.9610136,19.6363743 L19.9610136,8.62339181 C19.9610136,8.24323587 19.6528655,7.93508772 19.2727096,7.93508772 Z" id="Path"></path>
                </g>
            </g>
        </g>
    </g>
</svg>