<?xml version="1.0" encoding="UTF-8"?>
<svg width="15px" height="15px" viewBox="0 0 15 15" version="1.1" xmlns="http://www.w3.org/2000/svg" xmlns:xlink="http://www.w3.org/1999/xlink">
    <!-- Generator: Sketch 64 (93537) - https://sketch.com -->
    <title>full-screen</title>
    <desc>Created with Sketch.</desc>
    <g id="Styleguide" stroke="none" stroke-width="1" fill="none" fill-rule="evenodd">
        <g id="Token-detail---Confirming-01" transform="translate(-831.000000, -180.000000)" fill="#666666" fill-rule="nonzero">
            <g id="Group-6" transform="translate(831.000000, 180.000000)">
                <g id="full-screen">
                    <path d="M3.6127837,0.903195924 L3.6127837,0 L0.451597962,0 C0.202174763,0 0,0.202174763 0,0.451597962 L0,3.6127837 L0.903195924,3.6127837 L0.903195924,1.53994905 L5.09854099,5.73529412 L5.73529412,5.09854099 L1.53994905,0.903195924 L3.6127837,0.903195924 Z" id="Path"></path>
                    <path d="M14.548402,0 L11.3872163,0 L11.3872163,0.903195924 L13.4600509,0.903195924 L9.26470588,5.09854099 L9.90145901,5.73529412 L14.0968041,1.53994905 L14.0968041,3.6127837 L15,3.6127837 L15,0.451597962 C15,0.202174763 14.7978252,0 14.548402,0 Z" id="Path"></path>
                    <path d="M14.0968041,13.4600509 L9.90145901,9.26470588 L9.26470588,9.90145901 L13.4600509,14.0968041 L11.3872163,14.0968041 L11.3872163,15 L14.548402,15 C14.7978252,15 15,14.7978252 15,14.548402 L15,11.3872163 L14.0968041,11.3872163 L14.0968041,13.4600509 Z" id="Path"></path>
                    <path d="M5.09854099,8.82352941 L0.903195924,13.3428981 L0.903195924,11.112371 L0,11.112371 L0,14.5140464 C0,14.7824446 0.202174763,15 0.451597962,15 L3.6127837,15 L3.6127837,14.0280927 L1.53994905,14.0280927 L5.73529412,9.51358356 L5.09854099,8.82352941 Z" id="Path"></path>
                </g>
            </g>
        </g>
    </g>
</svg>