<?xml version="1.0" encoding="UTF-8"?>
<svg width="15px" height="16px" viewBox="0 0 15 16" version="1.1" xmlns="http://www.w3.org/2000/svg" xmlns:xlink="http://www.w3.org/1999/xlink">
    <!-- Generator: Sketch 64 (93537) - https://sketch.com -->
    <title>zone</title>
    <desc>Created with Sketch.</desc>
    <g id="Styleguide" stroke="none" stroke-width="1" fill="none" fill-rule="evenodd">
        <g id="Token-detail---Confirming-01" transform="translate(-355.000000, -180.000000)" fill="#666666" fill-rule="nonzero">
            <g id="Group-8" transform="translate(355.000000, 180.000000)">
                <g id="zone">
                    <path d="M7.50056251,0 L7.50056251,0 L7.50028126,0 L7.50015625,0 C3.35794496,0 0,3.56774219 0,7.96875 C0,12.3697578 3.35794496,15.9375 7.50015625,15.9375 L7.50028126,15.9375 L7.50056251,15.9375 C11.6427738,15.9371016 15.0004063,12.3690273 15,7.96801953 C14.999625,3.56757617 11.6422425,0.000431640625 7.50056251,0 Z M0.500010417,7.96875 C0.503354237,4.94301563 2.22926519,2.22012695 4.86688264,1.07930078 C3.30381883,2.46111523 2.25017188,5.0309043 2.25017188,7.96875 C2.25017188,10.9065957 3.30381883,13.4763516 4.86688264,14.858166 C2.22926519,13.7173398 0.503354237,10.9944844 0.500010417,7.96875 Z M2.7501823,7.96875 C2.7501823,4.52644922 4.25171358,1.62393164 6.28294339,0.779908203 C5.30582929,2.1430625 4.75009896,5.09110156 4.75009896,7.96875 C4.75009896,10.8463984 5.30582929,13.7944375 6.28294339,15.1575918 C4.25171358,14.3135684 2.7501823,11.4110508 2.7501823,7.96875 Z M7.25027605,15.3495059 C6.25869289,14.9210195 5.25010938,12.0109648 5.25010938,7.96875 C5.25010938,3.92653516 6.25866164,1.01648047 7.25027605,0.587994141 L7.25027605,15.3495059 L7.25027605,15.3495059 Z M7.75028646,15.3494063 L7.75028646,0.58809375 C8.74180712,1.01694531 9.75020313,3.92686719 9.75020313,7.96875 C9.75020313,12.0106328 8.74180712,14.9205547 7.75028646,15.3494063 Z M8.71727536,15.1577578 C9.69445197,13.7946699 10.2502135,10.8465312 10.2502135,7.96875 C10.2502135,5.09096875 9.69445197,2.14283008 8.71727536,0.779742188 C10.7486614,1.62356641 12.2503802,4.5262168 12.2503802,7.96875 C12.2503802,11.4112832 10.7486614,14.3139336 8.71727536,15.1577578 Z M10.1338674,14.8579668 C11.6968374,13.4761191 12.7503906,10.9064629 12.7503906,7.96875 C12.7503906,5.03103711 11.6968374,2.46134766 10.1338674,1.0795 C13.7148795,2.62364453 15.4396654,6.95987305 13.9863226,10.7646523 C13.2753391,12.6259531 11.8857164,14.1023965 10.1338674,14.8579668 Z" id="Shape"></path>
                </g>
            </g>
        </g>
    </g>
</svg>