<?xml version="1.0" encoding="UTF-8"?>
<svg width="13px" height="13px" viewBox="0 0 13 13" version="1.1" xmlns="http://www.w3.org/2000/svg" xmlns:xlink="http://www.w3.org/1999/xlink">
    <!-- Generator: Sketch 64 (93537) - https://sketch.com -->
    <title>Shape</title>
    <desc>Created with Sketch.</desc>
    <g id="Styleguide" stroke="none" stroke-width="1" fill="none" fill-rule="evenodd">
        <g id="Land-Listing" transform="translate(-345.000000, -193.000000)" fill="#666666" fill-rule="nonzero">
            <g id="shapes-and-symbols" transform="translate(345.000000, 193.000000)">
                <path d="M12.9206636,12.154725 L9.14425503,8.37831733 C9.86052648,7.49403587 10.2916858,6.36983782 10.2916858,5.14585436 C10.2916858,2.30844509 7.98324019,0 5.14583023,0 C2.30842026,0 0,2.30844509 0,5.14585436 C0,7.98326363 2.30844565,10.2917087 5.14585562,10.2917087 C6.36983937,10.2917087 7.4940377,9.86052407 8.37831938,9.14427818 L12.154728,12.9206858 C12.260531,13.0264381 12.4319689,13.0264381 12.537772,12.9206858 L12.920689,12.5377435 C13.0264412,12.4319659 13.0264412,12.2604772 12.9206636,12.154725 Z M5.14585562,9.20836428 C2.90566015,9.20836428 1.08334471,7.38604928 1.08334471,5.14585436 C1.08334471,2.90565944 2.90566015,1.08334444 5.14585562,1.08334444 C7.38605109,1.08334444 9.20836653,2.90565944 9.20836653,5.14585436 C9.20836653,7.38604928 7.38605109,9.20836428 5.14585562,9.20836428 Z" id="Shape"></path>
            </g>
        </g>
    </g>
</svg>