<?xml version="1.0" encoding="UTF-8"?>
<svg width="19px" height="19px" viewBox="0 0 19 19" version="1.1" xmlns="http://www.w3.org/2000/svg" xmlns:xlink="http://www.w3.org/1999/xlink">
    <title>Group 6</title>
    <g id="Styleguide" stroke="none" stroke-width="1" fill="none" fill-rule="evenodd">
        <g id="Land-Listing" transform="translate(-330.000000, -615.000000)" fill-rule="nonzero">
            <g id="Group-6" transform="translate(330.483505, 615.610933)">
                <rect id="Rectangle-25-Copy-2" fill="#DD3D42" transform="translate(8.562500, 8.562500) rotate(-22.000000) translate(-8.562500, -8.562500) " x="2" y="2" width="13.125" height="13.125" rx="6.5625"></rect>
                <g id="exclamation-mark" transform="translate(8.594425, 9.488067) scale(-1, 1) translate(-8.594425, -9.488067) translate(7.194425, 5.288067)" fill="#FFFFFF">
                    <path d="M1.47330711,0.234129121 C0.964484472,0.234129121 0.579489909,0.497492531 0.579489909,0.922884047 L0.579489909,4.82461346 C0.579489909,5.25044835 0.964434801,5.51292501 1.47330711,5.51292501 C1.96971218,5.51292501 2.36712432,5.23946256 2.36712432,4.82461346 L2.36712432,0.922884047 C2.36707465,0.507591577 1.96971218,0.234129121 1.47330711,0.234129121 Z M1.47330711,6.39193611 C0.984451936,6.39193611 0.586592763,6.78653785 0.586592763,7.27178469 C0.586592763,7.75619405 0.984451936,8.15079579 1.47330711,8.15079579 C1.96216229,8.15079579 2.35957443,7.75619405 2.35957443,7.27178469 C2.35952476,6.78648859 1.96216229,6.39193611 1.47330711,6.39193611 Z" id="Shape"></path>
                </g>
            </g>
        </g>
    </g>
</svg>