<?xml version="1.0" encoding="UTF-8"?>
<svg width="17px" height="20px" viewBox="0 0 17 20" version="1.1" xmlns="http://www.w3.org/2000/svg" xmlns:xlink="http://www.w3.org/1999/xlink">
    <!-- Generator: Sketch 64 (93537) - https://sketch.com -->
    <title>clipboard copy</title>
    <desc>Created with Sketch.</desc>
    <g id="Styleguide" stroke="none" stroke-width="1" fill="none" fill-rule="evenodd">
        <g id="Land-Listing" transform="translate(-20.000000, -79.000000)" fill="#FFFFFF" fill-rule="nonzero">
            <g id="Group" transform="translate(0.000000, 60.000000)">
                <g id="clipboard-copy" transform="translate(20.000000, 19.000000)">
                    <path d="M15.1111013,1.94374768 L11.1586116,1.94374768 C10.7713756,0.816367649 9.73247466,0 8.49997786,0 C7.26748107,0 6.22858013,0.816367649 5.84138843,1.94374768 L1.88889873,1.94374768 C0.84530509,1.94374768 0,2.81355279 0,3.88749536 L0,17.4935925 C0,18.5674895 0.84526082,19.4373402 1.88889873,19.4373402 L15.1111013,19.4373402 C16.1546949,19.4373402 17,18.567535 17,17.4935925 L17,3.88744981 C17,2.81355279 16.1546949,1.94374768 15.1111013,1.94374768 Z M8.49997786,1.94374768 C9.0194062,1.94374768 9.44440509,2.37621298 9.44440509,2.91559875 C9.44440509,3.45498451 9.0194062,3.88744981 8.49997786,3.88744981 C7.98054953,3.88744981 7.55555064,3.45498451 7.55555064,2.91559875 C7.55555064,2.37621298 7.98054953,1.94374768 8.49997786,1.94374768 Z M10.3888766,15.5498448 L3.77779745,15.5498448 L3.77779745,13.6060971 L10.3888766,13.6060971 L10.3888766,15.5498448 Z M13.2222025,11.662395 L3.77779745,11.662395 L3.77779745,9.7186473 L13.2222025,9.7186473 L13.2222025,11.662395 Z M13.2222025,7.77494517 L3.77779745,7.77494517 L3.77779745,5.83119749 L13.2222025,5.83119749 L13.2222025,7.77494517 Z" id="Shape"></path>
                </g>
            </g>
        </g>
    </g>
</svg>