<?xml version="1.0" encoding="UTF-8"?>
<svg width="16px" height="17px" viewBox="0 0 16 17" version="1.1" xmlns="http://www.w3.org/2000/svg" xmlns:xlink="http://www.w3.org/1999/xlink">
    <title>Group</title>
    <g id="Styleguide" stroke="none" stroke-width="1" fill="none" fill-rule="evenodd">
        <g id="Token-detail---On-Sale-2-(Freely)" transform="translate(-665.000000, -910.000000)" fill="#666660" fill-rule="nonzero">
            <g id="Group" transform="translate(665.322266, 910.959201)">
                <path d="M7.17773438,15.6499609 C3.95881348,15.6496658 1.14125977,13.4716146 0.307983398,10.3393056 C-0.525292969,7.20699653 0.833569336,3.90144097 3.62102051,2.27965278 C3.92995605,2.0993967 4.32546387,2.2056467 4.50439453,2.51687066 C4.6833252,2.82809462 4.57785645,3.22653212 4.2689209,3.40678819 C1.73803711,4.87650608 0.680566406,8.0083724 1.79692383,10.7279297 C2.91328125,13.447487 5.85761719,14.9121875 8.67971191,14.1519097 C11.5018066,13.3916319 13.3273682,10.6418967 12.9472412,7.72400608 C12.5671143,4.80611545 10.098999,2.62407986 7.17773438,2.62312066 C6.82067871,2.62312066 6.53115234,2.33152344 6.53115234,1.97174913 C6.53115234,1.61197483 6.82060547,1.3203776 7.17773438,1.3203776 C11.1056396,1.3203776 14.2897705,4.5281684 14.2897705,8.48509549 C14.2897705,12.4420226 11.1056396,15.6499609 7.17773438,15.6499609 Z" id="Path"></path>
                <path d="M8.89101563,4.57716166 C8.70571289,4.57730903 8.52927246,4.49740017 8.40644531,4.35772569 L6.69345703,2.4075217 C6.56682129,2.26327257 6.51005859,2.06988281 6.53840332,1.87944444 C6.56674805,1.68900608 6.67727051,1.52092448 6.84030762,1.4203559 L8.95861816,0.113849826 C9.15556641,-0.00759982639 9.40187988,-0.0140190972 9.60476074,0.0970269097 C9.8076416,0.208072917 9.93632813,0.419761285 9.94226074,0.652330729 C9.94819336,0.884900174 9.83056641,1.10293403 9.63361816,1.22445747 L8.17287598,2.12581163 L9.37507324,3.49400174 C9.54360352,3.6859158 9.58483887,3.95950955 9.48046875,4.19311198 C9.37602539,4.42678819 9.14538574,4.57708767 8.89101563,4.57716166 Z" id="Path"></path>
            </g>
        </g>
    </g>
</svg>