<?xml version="1.0" encoding="UTF-8"?>
<svg width="58px" height="58px" viewBox="0 0 58 58" version="1.1" xmlns="http://www.w3.org/2000/svg" xmlns:xlink="http://www.w3.org/1999/xlink">
    <!-- Generator: Sketch 64 (93537) - https://sketch.com -->
    <title>2020 GENESIS ICON</title>
    <desc>Created with Sketch.</desc>
    <defs>
        <linearGradient x1="12.675809%" y1="51.8570644%" x2="84.4575116%" y2="48.2852745%" id="linearGradient-1">
            <stop stop-color="#AB7422" offset="0%"></stop>
            <stop stop-color="#D9B270" offset="30%"></stop>
            <stop stop-color="#D9B270" offset="77%"></stop>
            <stop stop-color="#AB7422" offset="100%"></stop>
        </linearGradient>
        <linearGradient x1="0.00422049469%" y1="49.9915667%" x2="99.9645271%" y2="49.9915667%" id="linearGradient-2">
            <stop stop-color="#AB7422" offset="0%"></stop>
            <stop stop-color="#D8B25F" offset="9%"></stop>
            <stop stop-color="#EED17E" offset="14%"></stop>
            <stop stop-color="#FCFAD6" offset="26%"></stop>
            <stop stop-color="#EED17E" offset="36%"></stop>
            <stop stop-color="#AB7422" offset="49%"></stop>
            <stop stop-color="#D8B25F" offset="57%"></stop>
            <stop stop-color="#EED17E" offset="61%"></stop>
            <stop stop-color="#FCFAD6" offset="74%"></stop>
            <stop stop-color="#EED17E" offset="84%"></stop>
            <stop stop-color="#AB7422" offset="100%"></stop>
        </linearGradient>
        <linearGradient x1="-3.85366461%" y1="83.895268%" x2="102.080707%" y2="24.7037593%" id="linearGradient-3">
            <stop stop-color="#AB7422" offset="0%"></stop>
            <stop stop-color="#D8B25F" offset="9%"></stop>
            <stop stop-color="#EED17E" offset="14%"></stop>
            <stop stop-color="#FCFAD6" offset="26%"></stop>
            <stop stop-color="#EED17E" offset="36%"></stop>
            <stop stop-color="#AB7422" offset="49%"></stop>
            <stop stop-color="#D8B25F" offset="57%"></stop>
            <stop stop-color="#EED17E" offset="61%"></stop>
            <stop stop-color="#FCFAD6" offset="74%"></stop>
            <stop stop-color="#EED17E" offset="84%"></stop>
            <stop stop-color="#AB7422" offset="100%"></stop>
        </linearGradient>
    </defs>
    <g id="Styleguide" stroke="none" stroke-width="1" fill="none" fill-rule="evenodd">
        <g id="Transaction-Management" transform="translate(-1155.000000, -170.000000)" fill-rule="nonzero">
            <g id="Group-5" transform="translate(1144.000000, 159.000000)">
                <g id="2020-GENESIS-ICON">
                    <circle id="Oval" fill="url(#linearGradient-1)" transform="translate(39.997330, 39.996493) rotate(-45.000000) translate(-39.997330, -39.996493) " cx="39.9973303" cy="39.9964932" r="28.2322251"></circle>
                    <circle id="Oval" fill="#231916" opacity="0.94" transform="translate(39.997330, 39.996493) rotate(-45.000000) translate(-39.997330, -39.996493) " cx="39.9973303" cy="39.9964932" r="25.9079284"></circle>
                    <path d="M63.5702804,38.7502344 L57.3439596,23.7327554 C57.3550564,23.7236844 57.3651444,23.7136056 57.3752324,23.7035267 C57.6720661,23.4067864 57.6720661,22.9258622 57.3752324,22.6291219 C57.073756,22.3425625 56.600318,22.3425625 56.2988415,22.6291219 C56.2887535,22.6392007 56.2796743,22.6502874 56.2705951,22.6603663 L41.2394577,16.4397031 C41.2404475,16.4256101 41.2404475,16.411465 41.2394577,16.397372 C41.2495932,16.1194514 41.1069705,15.8581967 40.8676128,15.7162306 C40.628255,15.5742646 40.3303969,15.5742646 40.0910392,15.7162306 C39.8516815,15.8581967 39.7090588,16.1194514 39.7191943,16.397372 C39.7191943,16.4114824 39.7191943,16.4255927 39.7191943,16.4397031 L24.6880569,22.6603663 C24.6789776,22.6502874 24.6698984,22.6392007 24.6598104,22.6291219 C24.3588781,22.3421779 23.8853607,22.3421779 23.5844284,22.6291219 C23.4416318,22.7714949 23.3613847,22.9647706 23.3613847,23.1663243 C23.3613847,23.367878 23.4416318,23.5611537 23.5844284,23.7035267 C23.5945164,23.7146135 23.6056132,23.7236844 23.61671,23.7337633 L17.3903892,38.7512423 L17.3460019,38.7512423 C16.9259142,38.7512423 16.5853659,39.0914813 16.5853659,39.5111872 C16.5853659,39.9308932 16.9259142,40.2711322 17.3460019,40.2711322 L17.391398,40.2711322 L23.6177188,55.2886112 L23.5834196,55.3188477 C23.4405618,55.461393 23.3602897,55.6548355 23.3602897,55.8565541 C23.3602897,56.0582728 23.4405618,56.2517153 23.5834196,56.3942605 C23.8843519,56.6812044 24.3578693,56.6812044 24.6588016,56.3942605 C24.6698984,56.3831738 24.6809953,56.372087 24.6910833,56.3599924 L39.7222207,62.5796477 C39.7222207,62.5957738 39.7222207,62.6108921 39.7222207,62.6270183 C39.7120852,62.9049389 39.8547079,63.1661935 40.0940656,63.3081596 C40.3334233,63.4501257 40.6312814,63.4501257 40.8706392,63.3081596 C41.1099969,63.1661935 41.2526196,62.9049389 41.2424841,62.6270183 C41.2424841,62.6108921 41.2424841,62.5957738 41.2424841,62.5806556 L56.2736215,56.3599924 C56.2837095,56.372087 56.2937975,56.3841817 56.3048944,56.3952684 C56.6058267,56.6822123 57.0793441,56.6822123 57.3802764,56.3952684 C57.523073,56.2528954 57.6033201,56.0596197 57.6033201,55.858066 C57.6033201,55.6565122 57.523073,55.4632365 57.3802764,55.3208635 C57.3695159,55.3094408 57.358419,55.299362 57.346986,55.290627 L63.5733068,40.2731479 L63.6187028,40.2731479 C63.8982069,40.2771517 64.157388,40.1276642 64.2936904,39.8838363 C64.4299928,39.6400084 64.4214514,39.341133 64.271446,39.1054725 C64.1214405,38.869812 63.8541444,38.7353431 63.5753244,38.7552739 L63.5702804,38.7502344 Z M18.1076468,39.5081636 C18.108559,39.2926576 18.0162496,39.0872628 17.8544377,38.9447561 L24.0827762,23.9272771 C24.2981697,23.939741 24.5086224,23.8596152 24.6610875,23.7070961 C24.8135525,23.554577 24.8934853,23.3442145 24.8807379,23.1290326 L39.9138929,16.9013142 C40.0569521,17.0635461 40.2629166,17.1565001 40.479326,17.1565001 C40.6957353,17.1565001 40.9016999,17.0635461 41.044759,16.9013142 L56.0758965,23.1229853 C56.0621841,23.3385127 56.1417689,23.5495458 56.2944232,23.702447 C56.4470774,23.8553481 56.6581009,23.9353933 56.8738582,23.9222377 L63.1021966,38.9397167 C62.9411444,39.0827802 62.8490018,39.2878154 62.8490018,39.5031242 C62.8490018,39.7184329 62.9411444,39.9234681 63.1021966,40.0665316 L56.8768846,55.0940895 C56.662445,55.0835116 56.4533082,55.1627798 56.2998504,55.3128004 C56.1477529,55.4645229 56.067738,55.6739129 56.0799317,55.8883025 L41.0427414,62.1119893 C40.8995916,61.9521053 40.6950469,61.8607197 40.4803348,61.8607197 C40.2656227,61.8607197 40.061078,61.9521053 39.9179281,62.1119893 L24.8827555,55.8883025 C24.8949071,55.6739944 24.8149229,55.4646939 24.6629069,55.3130085 C24.5108909,55.1613231 24.3012988,55.0816771 24.0868114,55.0940895 L17.8554465,40.071571 C18.016667,39.9287202 18.1085507,39.7234549 18.1076468,39.5081636 Z" id="Shape" fill="url(#linearGradient-2)"></path>
                    <path d="M57.5609756,42.2566779 C57.5515424,42.4598794 57.5148493,42.6608474 57.4519011,42.8540789 C57.3778505,43.1061127 57.2974623,43.2317927 57.2107363,43.2311188 C55.8097792,43.3787001 54.8454538,43.7631527 54.3177599,44.3844767 C53.7900661,45.0058007 53.5268863,45.8633221 53.5282205,46.957041 L53.5282205,51.4360322 C53.5282205,52.1773081 53.5649123,52.709679 53.6382957,53.0331448 C53.725365,53.4000678 53.8501263,53.7568038 54.01055,54.0975496 C52.0283125,54.7846473 50.0086012,55.3560359 47.9614174,55.8088861 C45.628868,56.3324369 43.2459903,56.5928041 40.8565636,56.5853659 C38.0219604,56.5853659 35.4942335,56.1424603 33.2733829,55.2569725 C31.0525323,54.3714848 29.2126087,53.1739873 27.7536119,51.66448 C26.3329344,50.2328319 25.229216,48.5129208 24.5153997,46.6184127 C23.7852903,44.7117431 23.4120455,42.6846949 23.4146341,40.6403595 C23.4146341,38.4266401 23.8149211,36.3679147 24.615468,34.4641834 C25.4160149,32.5604521 26.6361819,30.8258665 28.2759688,29.2604266 C29.8857352,27.7536148 31.9107853,26.5655517 34.3511192,25.6962373 C36.791453,24.8269228 39.5019715,24.3915917 42.4826745,24.3902439 C44.2756923,24.4038754 46.0590426,24.6570958 47.7862978,25.1433128 C49.6275557,25.6446849 51.2203105,25.8953709 52.5645622,25.8953709 C52.5645622,27.1083679 52.593582,28.6657212 52.6516217,30.5674308 C52.7096613,32.4691404 52.7536914,34.0706333 52.7837119,35.3719095 C52.7837119,35.4598518 52.6596271,35.541729 52.4104569,35.6155197 C52.1906432,35.684664 51.9621853,35.7217649 51.7319934,35.7257002 C51.5454363,35.7289878 51.3597772,35.6988716 51.1836188,35.6367471 C51.0435794,35.5958123 50.9252382,35.5006153 50.8543938,35.3719095 C50.1819344,32.9216557 48.9764442,30.8403551 47.2379231,29.1280078 C45.4994021,27.4156604 43.417313,26.5598237 40.9916558,26.5604976 C38.3618592,26.5604976 36.2797701,27.8745776 34.7453885,30.5027376 C33.211007,33.1308976 32.4438162,36.5107788 32.4438162,40.6423812 C32.4438162,44.6284239 33.1889919,47.9271016 34.6793434,50.5384145 C36.1696949,53.1497273 38.2301026,54.4560576 40.8605663,54.4574054 C42.6424503,54.4574054 43.8479405,54.2215449 44.477037,53.7498239 C45.1061334,53.2781028 45.4203481,52.5681627 45.419681,51.6200034 L45.419681,46.3363909 C45.419681,45.3302774 45.1565012,44.6203372 44.6301416,44.2065705 C44.103782,43.7928037 42.9359842,43.4821418 41.1267481,43.2745845 C41.038688,43.2745845 40.9586333,43.1563173 40.8855834,42.9197829 C40.8153038,42.7054454 40.7781755,42.4814395 40.7755082,42.2556671 C40.7772338,42.0370697 40.8144185,41.8202361 40.8855834,41.6137895 C40.9586333,41.3924176 41.038688,41.2812262 41.1267481,41.2812262 C42.5583929,41.2812262 43.814918,41.3294091 44.8963234,41.425775 C45.9777289,41.5221409 47.1758808,41.5699869 48.4907791,41.569313 C49.8350308,41.569313 51.2670091,41.521467 52.7867139,41.425775 C54.3064188,41.330083 55.7820937,41.2819001 57.2137384,41.2812262 C57.3007979,41.2812262 57.3808526,41.4005042 57.4549031,41.6360278 C57.5207479,41.8363989 57.5565023,42.0456043 57.5609756,42.2566779 Z" id="Path" fill="url(#linearGradient-3)"></path>
                </g>
            </g>
        </g>
    </g>
</svg>